<svg width="50" height="50" viewBox="0 0 50 50" fill="none" xmlns="http://www.w3.org/2000/svg">
<path d="M24.9998 29.1666C23.2637 29.1666 21.788 28.559 20.5728 27.3437C19.3575 26.1284 18.7498 24.6527 18.7498 22.9166V10.4166C18.7498 8.68051 19.3575 7.20482 20.5728 5.98954C21.788 4.77426 23.2637 4.16663 24.9998 4.16663C26.7359 4.16663 28.2116 4.77426 29.4269 5.98954C30.6422 7.20482 31.2498 8.68051 31.2498 10.4166V22.9166C31.2498 24.6527 30.6422 26.1284 29.4269 27.3437C28.2116 28.559 26.7359 29.1666 24.9998 29.1666ZM22.9165 43.75V37.3437C19.3054 36.8576 16.3193 35.243 13.9582 32.5C11.5971 29.7569 10.4165 26.5625 10.4165 22.9166H14.5832C14.5832 25.7986 15.5988 28.2552 17.63 30.2864C19.6613 32.3177 22.1179 33.3333 24.9998 33.3333C27.8818 33.3333 30.3384 32.3177 32.3696 30.2864C34.4009 28.2552 35.4165 25.7986 35.4165 22.9166H39.5832C39.5832 26.5625 38.4026 29.7569 36.0415 32.5C33.6804 35.243 30.6943 36.8576 27.0832 37.3437V43.75H22.9165Z" fill="#999999"/>
</svg>
