<svg width="56" height="56" viewBox="0 0 56 56" fill="none" xmlns="http://www.w3.org/2000/svg">
<circle cx="28" cy="28" r="28" fill="#FFE6CE"/>
<path d="M27.9998 32.1666C26.2637 32.1666 24.788 31.559 23.5728 30.3437C22.3575 29.1284 21.7498 27.6527 21.7498 25.9166V13.4166C21.7498 11.6805 22.3575 10.2048 23.5728 8.98954C24.788 7.77426 26.2637 7.16663 27.9998 7.16663C29.7359 7.16663 31.2116 7.77426 32.4269 8.98954C33.6422 10.2048 34.2498 11.6805 34.2498 13.4166V25.9166C34.2498 27.6527 33.6422 29.1284 32.4269 30.3437C31.2116 31.559 29.7359 32.1666 27.9998 32.1666ZM25.9165 46.75V40.3437C22.3054 39.8576 19.3193 38.243 16.9582 35.5C14.5971 32.7569 13.4165 29.5625 13.4165 25.9166H17.5832C17.5832 28.7986 18.5988 31.2552 20.63 33.2864C22.6613 35.3177 25.1179 36.3333 27.9998 36.3333C30.8818 36.3333 33.3384 35.3177 35.3696 33.2864C37.4009 31.2552 38.4165 28.7986 38.4165 25.9166H42.5832C42.5832 29.5625 41.4026 32.7569 39.0415 35.5C36.6804 38.243 33.6943 39.8576 30.0832 40.3437V46.75H25.9165Z" fill="#F18B5B"/>
</svg>
