<svg width="39" height="27" viewBox="0 0 39 27" fill="none" xmlns="http://www.w3.org/2000/svg">
<path d="M15.6572 0.383526C16.1825 -0.0365905 16.9016 -0.118704 17.5078 0.172589C18.1141 0.46402 18.5 1.07707 18.5 1.74974V25.0827C18.4999 25.7553 18.114 26.3685 17.5078 26.6599C16.9017 26.9511 16.1824 26.8697 15.6572 26.4499L7.80273 20.1667H1.75C0.783704 20.1667 0.000327715 19.3829 0 18.4167V8.41673C0 7.45023 0.783502 6.66673 1.75 6.66673H7.80176L15.6572 0.383526ZM35.5127 8.51243C36.1961 7.82902 37.3039 7.82902 37.9873 8.51243C38.6706 9.19586 38.6707 10.3037 37.9873 10.987L34.2246 14.7497L37.9873 18.5124C38.6706 19.1959 38.6707 20.3037 37.9873 20.987C37.3039 21.6703 36.1961 21.6703 35.5127 20.987L31.75 17.2243L27.9873 20.987C27.3039 21.6703 26.1961 21.6703 25.5127 20.987C24.8293 20.3037 24.8294 19.1959 25.5127 18.5124L29.2754 14.7497L25.5127 10.987C24.8293 10.3037 24.8294 9.19586 25.5127 8.51243C26.1961 7.82902 27.3039 7.82902 27.9873 8.51243L31.75 12.2751L35.5127 8.51243ZM9.50977 9.78294C9.19959 10.031 8.81416 10.1667 8.41699 10.1667H3.5V16.6667H8.41699L8.56543 16.6726C8.90942 16.7019 9.23841 16.8325 9.50977 17.0495L15 21.4411V5.39036L9.50977 9.78294Z" fill="#1E1E1E"/>
</svg>
